<svg width="138" height="27" viewBox="0 0 138 27" fill="none" xmlns="http://www.w3.org/2000/svg">
<path d="M27.224 18.5861V25.71H0.187308V1.48888H10.3642V18.5861H27.224ZM46.3765 0.572956C52.3922 0.572956 56.8587 1.63588 59.7761 3.76173C62.6935 5.88757 64.1522 9.1668 64.1522 13.5994C64.1522 18.032 62.6935 21.3113 59.7761 23.4371C56.8587 25.563 52.3922 26.6259 46.3765 26.6259C40.3608 26.6259 35.8943 25.563 32.9769 23.4371C30.0595 21.3113 28.6008 18.032 28.6008 13.5994C28.6008 9.1668 30.0595 5.88757 32.9769 3.76173C35.8943 1.63588 40.3608 0.572956 46.3765 0.572956ZM46.3765 19.1628C50.8091 19.1628 53.0254 17.3083 53.0254 13.5994C53.0254 9.8905 50.8091 8.03604 46.3765 8.03604C41.9439 8.03604 39.7276 9.8905 39.7276 13.5994C39.7276 17.3083 41.9439 19.1628 46.3765 19.1628ZM84.4652 17.6023V12.1068H100.68V25.71H93.5566V23.5728C91.2272 25.6082 87.8802 26.6259 83.5154 26.6259C77.4318 26.6259 72.9314 25.563 70.014 23.4371C67.0966 21.2887 65.6379 17.9981 65.6379 13.5655C65.6379 9.1555 67.0853 5.88757 69.9801 3.76173C72.8975 1.63588 77.3414 0.572956 83.3118 0.572956C89.1466 0.572956 93.4435 1.42103 96.2026 3.11719C98.9843 4.79073 100.443 7.14273 100.579 10.1732H88.8752C88.2646 8.74842 86.4328 8.03604 83.3797 8.03604C78.9697 8.03604 76.7647 9.8905 76.7647 13.5994C76.7647 15.68 77.3075 17.2179 78.393 18.213C79.4785 19.208 81.2086 19.7056 83.5832 19.7056C84.8949 19.7056 86.0144 19.5699 86.9416 19.2985C87.8688 19.0271 88.5586 18.7218 89.0109 18.3826C89.4858 18.0433 89.7233 17.7833 89.7233 17.6023H84.4652ZM120.219 0.572956C126.235 0.572956 130.701 1.63588 133.618 3.76173C136.536 5.88757 137.995 9.1668 137.995 13.5994C137.995 18.032 136.536 21.3113 133.618 23.4371C130.701 25.563 126.235 26.6259 120.219 26.6259C114.203 26.6259 109.737 25.563 106.819 23.4371C103.902 21.3113 102.443 18.032 102.443 13.5994C102.443 9.1668 103.902 5.88757 106.819 3.76173C109.737 1.63588 114.203 0.572956 120.219 0.572956ZM120.219 19.1628C124.651 19.1628 126.868 17.3083 126.868 13.5994C126.868 9.8905 124.651 8.03604 120.219 8.03604C115.786 8.03604 113.57 9.8905 113.57 13.5994C113.57 17.3083 115.786 19.1628 120.219 19.1628Z" fill="#FC9A53"/>
</svg>
