<svg width="235" height="61" viewBox="0 0 235 61" fill="none" xmlns="http://www.w3.org/2000/svg">
<g filter="url(#filter0_ddddd_602_5)">
<path fill-rule="evenodd" clip-rule="evenodd" d="M102 0.348511H28.2279L0 25.3554V60.1865H132.435V60.1846H234.436V44.671V0.346558H102V0.348511Z" fill="#00CD94"/>
</g>
<path d="M89.224 24.7655C90.4933 24.7655 91.496 24.9148 92.232 25.2135C92.9787 25.5121 93.512 25.9655 93.832 26.5735C94.152 27.1708 94.312 27.9548 94.312 28.9255C94.312 29.8641 94.1467 30.6268 93.816 31.2135C93.496 31.8001 92.9627 32.2375 92.216 32.5255C91.48 32.8135 90.4827 32.9575 89.224 32.9575H84.36V36.1895H79.56V24.7655H89.224ZM87.752 29.9815C88.232 29.9815 88.568 29.9015 88.76 29.7415C88.9627 29.5708 89.064 29.3041 89.064 28.9415C89.064 28.5681 88.9627 28.2961 88.76 28.1255C88.568 27.9548 88.232 27.8695 87.752 27.8695H84.36V29.9815H87.752ZM111.37 36.1895H106.234L105.578 34.7495H99.8499L99.1939 36.1895H94.0579L99.5619 24.7655H105.866L111.37 36.1895ZM102.666 28.4775L101.178 31.7735H104.25L102.762 28.4775H102.666ZM122.725 24.7655C123.995 24.7655 124.997 24.9148 125.733 25.2135C126.48 25.5121 127.013 25.9655 127.333 26.5735C127.653 27.1708 127.813 27.9548 127.813 28.9255C127.813 29.8641 127.648 30.6268 127.317 31.2135C126.997 31.8001 126.464 32.2375 125.717 32.5255C124.981 32.8135 123.984 32.9575 122.725 32.9575H117.861V36.1895H113.061V24.7655H122.725ZM121.253 29.9815C121.733 29.9815 122.069 29.9015 122.261 29.7415C122.464 29.5708 122.565 29.3041 122.565 28.9415C122.565 28.5681 122.464 28.2961 122.261 28.1255C122.069 27.9548 121.733 27.8695 121.253 27.8695H117.861V29.9815H121.253ZM142.881 27.6775H134.737V29.1175H142.465V31.7575H134.737V33.3255H142.977V36.1895H129.937V24.7655H142.881V27.6775ZM157.905 31.9975L160.497 36.1895H155.201L153.345 32.9575H150.097V36.1895H145.297V24.7655H155.153C157.009 24.7655 158.321 25.0961 159.089 25.7575C159.857 26.4081 160.241 27.3895 160.241 28.7015C160.241 29.6081 160.044 30.3068 159.649 30.7975C159.254 31.2881 158.673 31.6348 157.905 31.8375V31.9975ZM153.681 30.1575C154.118 30.1575 154.428 30.0828 154.609 29.9335C154.801 29.7735 154.897 29.5281 154.897 29.1975C154.897 28.8561 154.806 28.6055 154.625 28.4455C154.444 28.2855 154.129 28.2055 153.681 28.2055H150.097V30.1575H153.681Z" fill="white"/>
<path d="M29 7.34668H54V53.3467H7V26.8467L29 7.34668Z" fill="white"/>
<path d="M31.5996 31.5473V23.5473C31.5996 22.6636 32.3159 21.9473 33.1996 21.9473C34.0833 21.9473 34.7996 22.6636 34.7996 23.5473V26.7473" stroke="#417B6B" stroke-miterlimit="10"/>
<path d="M25.1992 33.1473V23.5473C25.1992 22.6636 25.9155 21.9473 26.7992 21.9473C27.6829 21.9473 28.3992 22.6636 28.3992 23.5473" stroke="#417B6B" stroke-miterlimit="10"/>
<path d="M28.4004 31.5467V21.9467C28.4004 21.063 29.1167 20.3467 30.0004 20.3467C30.8841 20.3467 31.6004 21.063 31.6004 21.9467V30.7467" stroke="#417B6B" stroke-miterlimit="10"/>
<path d="M30 37.9461C30 35.2951 32.149 33.1461 34.8 33.1461V29.9461C34.8 29.0624 35.5163 28.3461 36.4 28.3461C37.2837 28.3461 38 29.0624 38 29.9461V36.3461C38 40.7644 34.4183 44.3461 30 44.3461C25.5817 44.3461 22 40.7644 22 36.3461V28.3461C22 27.4624 22.7163 26.7461 23.6 26.7461C24.4837 26.7461 25.2 27.4624 25.2 28.3461" stroke="#417B6B" stroke-miterlimit="10"/>
<path d="M33.1992 37.9473H34.7992" stroke="#417B6B" stroke-miterlimit="10"/>
<defs>
<filter id="filter0_ddddd_602_5" x="-90.326" y="0.34668" width="415.088" height="263.073" filterUnits="userSpaceOnUse" color-interpolation-filters="sRGB">
<feFlood flood-opacity="0" result="BackgroundImageFix"/>
<feColorMatrix in="SourceAlpha" type="matrix" values="0 0 0 0 0 0 0 0 0 0 0 0 0 0 0 0 0 0 127 0" result="hardAlpha"/>
<feOffset dy="3.87825"/>
<feGaussianBlur stdDeviation="1.5513"/>
<feColorMatrix type="matrix" values="0 0 0 0 0.156863 0 0 0 0 0.227451 0 0 0 0 0.592157 0 0 0 0.0217013 0"/>
<feBlend mode="normal" in2="BackgroundImageFix" result="effect1_dropShadow_602_5"/>
<feColorMatrix in="SourceAlpha" type="matrix" values="0 0 0 0 0 0 0 0 0 0 0 0 0 0 0 0 0 0 127 0" result="hardAlpha"/>
<feOffset dy="9.80839"/>
<feGaussianBlur stdDeviation="3.92336"/>
<feColorMatrix type="matrix" values="0 0 0 0 0.156863 0 0 0 0 0.227451 0 0 0 0 0.592157 0 0 0 0.0310596 0"/>
<feBlend mode="normal" in2="effect1_dropShadow_602_5" result="effect2_dropShadow_602_5"/>
<feColorMatrix in="SourceAlpha" type="matrix" values="0 0 0 0 0 0 0 0 0 0 0 0 0 0 0 0 0 0 127 0" result="hardAlpha"/>
<feOffset dy="20.0082"/>
<feGaussianBlur stdDeviation="8.00328"/>
<feColorMatrix type="matrix" values="0 0 0 0 0.156863 0 0 0 0 0.227451 0 0 0 0 0.592157 0 0 0 0.0389404 0"/>
<feBlend mode="normal" in2="effect2_dropShadow_602_5" result="effect3_dropShadow_602_5"/>
<feColorMatrix in="SourceAlpha" type="matrix" values="0 0 0 0 0 0 0 0 0 0 0 0 0 0 0 0 0 0 127 0" result="hardAlpha"/>
<feOffset dy="41.2131"/>
<feGaussianBlur stdDeviation="16.4852"/>
<feColorMatrix type="matrix" values="0 0 0 0 0.156863 0 0 0 0 0.227451 0 0 0 0 0.592157 0 0 0 0.0482987 0"/>
<feBlend mode="normal" in2="effect3_dropShadow_602_5" result="effect4_dropShadow_602_5"/>
<feColorMatrix in="SourceAlpha" type="matrix" values="0 0 0 0 0 0 0 0 0 0 0 0 0 0 0 0 0 0 127 0" result="hardAlpha"/>
<feOffset dy="112.907"/>
<feGaussianBlur stdDeviation="45.163"/>
<feColorMatrix type="matrix" values="0 0 0 0 0.156863 0 0 0 0 0.227451 0 0 0 0 0.592157 0 0 0 0.07 0"/>
<feBlend mode="normal" in2="effect4_dropShadow_602_5" result="effect5_dropShadow_602_5"/>
<feBlend mode="normal" in="SourceGraphic" in2="effect5_dropShadow_602_5" result="shape"/>
</filter>
</defs>
</svg>
