<svg width="235" height="61" viewBox="0 0 235 61" fill="none" xmlns="http://www.w3.org/2000/svg">
<g filter="url(#filter0_ddddd_602_3)">
<path fill-rule="evenodd" clip-rule="evenodd" d="M102 0.348511H28.2279L0 25.3554V60.1865H132.435V60.1846H234.436V44.671V0.346558H102V0.348511Z" fill="#00CD94"/>
</g>
<path d="M92.168 31.9975L94.76 36.1895H89.464L87.608 32.9575H84.36V36.1895H79.56V24.7655H89.416C91.272 24.7655 92.584 25.0961 93.352 25.7575C94.12 26.4081 94.504 27.3895 94.504 28.7015C94.504 29.6081 94.3067 30.3068 93.912 30.7975C93.5173 31.2881 92.936 31.6348 92.168 31.8375V31.9975ZM87.944 30.1575C88.3813 30.1575 88.6907 30.0828 88.872 29.9335C89.064 29.7735 89.16 29.5281 89.16 29.1975C89.16 28.8561 89.0693 28.6055 88.888 28.4455C88.7067 28.2855 88.392 28.2055 87.944 28.2055H84.36V30.1575H87.944ZM104.862 24.3335C107.699 24.3335 109.806 24.8348 111.182 25.8375C112.558 26.8401 113.246 28.3868 113.246 30.4775C113.246 32.5681 112.558 34.1148 111.182 35.1175C109.806 36.1201 107.699 36.6215 104.862 36.6215C102.024 36.6215 99.9176 36.1201 98.5416 35.1175C97.1656 34.1148 96.4776 32.5681 96.4776 30.4775C96.4776 28.3868 97.1656 26.8401 98.5416 25.8375C99.9176 24.8348 102.024 24.3335 104.862 24.3335ZM104.862 33.1015C106.952 33.1015 107.998 32.2268 107.998 30.4775C107.998 28.7281 106.952 27.8535 104.862 27.8535C102.771 27.8535 101.726 28.7281 101.726 30.4775C101.726 32.2268 102.771 33.1015 104.862 33.1015ZM126.154 29.3735C126.048 28.3601 125.178 27.8535 123.546 27.8535C122.544 27.8535 121.792 28.0775 121.29 28.5255C120.8 28.9735 120.554 29.6241 120.554 30.4775C120.554 31.3308 120.8 31.9815 121.29 32.4295C121.792 32.8775 122.544 33.1015 123.546 33.1015C124.485 33.1015 125.146 32.9468 125.53 32.6375C125.914 32.3175 126.133 31.8748 126.186 31.3095H131.722C131.68 33.0801 130.992 34.4081 129.658 35.2935C128.325 36.1788 126.288 36.6215 123.546 36.6215C120.773 36.6215 118.704 36.1201 117.338 35.1175C115.984 34.1041 115.306 32.5575 115.306 30.4775C115.306 28.3975 115.984 26.8561 117.338 25.8535C118.704 24.8401 120.773 24.3335 123.546 24.3335C128.89 24.3335 131.605 26.0135 131.69 29.3735H126.154ZM148.783 24.7655L144.047 28.8455L149.567 36.1895H143.807L140.671 31.7735L138.799 33.3735V36.1895H133.999V24.7655H138.799V28.8135L143.327 24.7655H148.783Z" fill="white"/>
<path d="M29 7.34668H54V53.3467H7V26.8467L29 7.34668Z" fill="white"/>
<path d="M25.5556 29.6806C25.5556 30.6624 24.7597 31.4583 23.7778 31.4583C22.7959 31.4583 22 30.6624 22 29.6806V27.9028C22 26.9209 22.7959 26.125 23.7778 26.125C24.7597 26.125 25.5556 26.9209 25.5556 27.9028" stroke="#417B6B" stroke-miterlimit="10"/>
<path d="M29.1113 26.1245C29.1113 25.1426 29.9072 24.3467 30.8891 24.3467C31.871 24.3467 32.6669 25.1426 32.6669 26.1245V27.9022" stroke="#417B6B" stroke-miterlimit="10"/>
<path d="M32.6663 26.1245C32.6663 25.1426 33.4621 24.3467 34.444 24.3467C35.4259 24.3467 36.2218 25.1426 36.2218 26.1245V27.9022" stroke="#417B6B" stroke-miterlimit="10"/>
<path d="M34.4447 31.457C31.4991 31.457 29.1113 33.8448 29.1113 36.7904" stroke="#417B6B" stroke-miterlimit="10"/>
<path d="M22 33.2357V34.1246C22 38.5428 25.5817 42.1246 30 42.1246C34.4182 42.1246 38 38.5429 38 34.1246V27.9023H30.8889C29.907 27.9023 29.1111 28.6982 29.1111 29.6801C29.1111 30.662 29.907 31.4579 30.8889 31.4579H34.4444" stroke="#417B6B" stroke-miterlimit="10"/>
<path d="M27.3325 31.4578C26.3506 31.4578 25.5547 30.6619 25.5547 29.68V26.1245C25.5547 25.1426 26.3506 24.3467 27.3325 24.3467C28.3144 24.3467 29.1102 25.1426 29.1102 26.1245V29.68C29.1102 30.6618 28.3144 31.4578 27.3325 31.4578Z" stroke="#417B6B" stroke-miterlimit="10"/>
<path d="M32.666 36.791H34.4438" stroke="#417B6B" stroke-miterlimit="10"/>
<defs>
<filter id="filter0_ddddd_602_3" x="-90.326" y="0.34668" width="415.088" height="263.073" filterUnits="userSpaceOnUse" color-interpolation-filters="sRGB">
<feFlood flood-opacity="0" result="BackgroundImageFix"/>
<feColorMatrix in="SourceAlpha" type="matrix" values="0 0 0 0 0 0 0 0 0 0 0 0 0 0 0 0 0 0 127 0" result="hardAlpha"/>
<feOffset dy="3.87825"/>
<feGaussianBlur stdDeviation="1.5513"/>
<feColorMatrix type="matrix" values="0 0 0 0 0.156863 0 0 0 0 0.227451 0 0 0 0 0.592157 0 0 0 0.0217013 0"/>
<feBlend mode="normal" in2="BackgroundImageFix" result="effect1_dropShadow_602_3"/>
<feColorMatrix in="SourceAlpha" type="matrix" values="0 0 0 0 0 0 0 0 0 0 0 0 0 0 0 0 0 0 127 0" result="hardAlpha"/>
<feOffset dy="9.80839"/>
<feGaussianBlur stdDeviation="3.92336"/>
<feColorMatrix type="matrix" values="0 0 0 0 0.156863 0 0 0 0 0.227451 0 0 0 0 0.592157 0 0 0 0.0310596 0"/>
<feBlend mode="normal" in2="effect1_dropShadow_602_3" result="effect2_dropShadow_602_3"/>
<feColorMatrix in="SourceAlpha" type="matrix" values="0 0 0 0 0 0 0 0 0 0 0 0 0 0 0 0 0 0 127 0" result="hardAlpha"/>
<feOffset dy="20.0082"/>
<feGaussianBlur stdDeviation="8.00328"/>
<feColorMatrix type="matrix" values="0 0 0 0 0.156863 0 0 0 0 0.227451 0 0 0 0 0.592157 0 0 0 0.0389404 0"/>
<feBlend mode="normal" in2="effect2_dropShadow_602_3" result="effect3_dropShadow_602_3"/>
<feColorMatrix in="SourceAlpha" type="matrix" values="0 0 0 0 0 0 0 0 0 0 0 0 0 0 0 0 0 0 127 0" result="hardAlpha"/>
<feOffset dy="41.2131"/>
<feGaussianBlur stdDeviation="16.4852"/>
<feColorMatrix type="matrix" values="0 0 0 0 0.156863 0 0 0 0 0.227451 0 0 0 0 0.592157 0 0 0 0.0482987 0"/>
<feBlend mode="normal" in2="effect3_dropShadow_602_3" result="effect4_dropShadow_602_3"/>
<feColorMatrix in="SourceAlpha" type="matrix" values="0 0 0 0 0 0 0 0 0 0 0 0 0 0 0 0 0 0 127 0" result="hardAlpha"/>
<feOffset dy="112.907"/>
<feGaussianBlur stdDeviation="45.163"/>
<feColorMatrix type="matrix" values="0 0 0 0 0.156863 0 0 0 0 0.227451 0 0 0 0 0.592157 0 0 0 0.07 0"/>
<feBlend mode="normal" in2="effect4_dropShadow_602_3" result="effect5_dropShadow_602_3"/>
<feBlend mode="normal" in="SourceGraphic" in2="effect5_dropShadow_602_3" result="shape"/>
</filter>
</defs>
</svg>
