<svg width="235" height="61" viewBox="0 0 235 61" fill="none" xmlns="http://www.w3.org/2000/svg">
<g filter="url(#filter0_ddddd_602_6)">
<path fill-rule="evenodd" clip-rule="evenodd" d="M102 0.348511H28.2279L0 25.3554V60.1865H132.435V60.1846H234.436V44.671V0.346558H102V0.348511Z" fill="#00CD94"/>
</g>
<path d="M88.872 28.3467C88.84 28.0373 88.648 27.7973 88.296 27.6267C87.9547 27.456 87.448 27.3707 86.776 27.3707C86.0507 27.3707 85.5493 27.4293 85.272 27.5467C85.0053 27.6533 84.872 27.8133 84.872 28.0267C84.872 28.24 84.968 28.4 85.16 28.5067C85.352 28.6027 85.72 28.672 86.264 28.7147L90.232 29.0827C91.672 29.2213 92.7813 29.584 93.56 30.1707C94.3387 30.7467 94.728 31.6107 94.728 32.7627C94.728 33.8613 94.44 34.704 93.864 35.2907C93.288 35.8667 92.4453 36.256 91.336 36.4587C90.2373 36.672 88.776 36.7787 86.952 36.7787C85.1813 36.7787 83.7467 36.6613 82.648 36.4267C81.5493 36.192 80.7013 35.7707 80.104 35.1627C79.5173 34.5547 79.2027 33.696 79.16 32.5867H84.6C84.6427 33.0667 84.8507 33.392 85.224 33.5627C85.608 33.7227 86.2053 33.8027 87.016 33.8027C87.816 33.8027 88.3653 33.7493 88.664 33.6427C88.9627 33.536 89.112 33.3707 89.112 33.1467C89.112 32.912 89.0107 32.736 88.808 32.6187C88.6053 32.4907 88.2213 32.3947 87.656 32.3307L83.944 31.9147C82.5147 31.7547 81.4053 31.4187 80.616 30.9067C79.8373 30.384 79.448 29.5307 79.448 28.3467C79.448 26.9067 80.0827 25.904 81.352 25.3387C82.632 24.7733 84.4613 24.4907 86.84 24.4907C89.1867 24.4907 90.984 24.7733 92.232 25.3387C93.4907 25.8933 94.152 26.896 94.216 28.3467H88.872ZM107.591 29.5307C107.485 28.5173 106.615 28.0107 104.983 28.0107C103.981 28.0107 103.229 28.2347 102.727 28.6827C102.237 29.1307 101.991 29.7813 101.991 30.6347C101.991 31.488 102.237 32.1387 102.727 32.5867C103.229 33.0347 103.981 33.2587 104.983 33.2587C105.922 33.2587 106.583 33.104 106.967 32.7947C107.351 32.4747 107.57 32.032 107.623 31.4667H113.159C113.117 33.2373 112.429 34.5653 111.095 35.4507C109.762 36.336 107.725 36.7787 104.983 36.7787C102.21 36.7787 100.141 36.2773 98.7753 35.2747C97.4206 34.2613 96.7433 32.7147 96.7433 30.6347C96.7433 28.5547 97.4206 27.0133 98.7753 26.0107C100.141 24.9973 102.21 24.4907 104.983 24.4907C110.327 24.4907 113.042 26.1707 113.127 29.5307H107.591ZM120.236 24.9227V36.3467H115.436V24.9227H120.236ZM132.03 28.3467C131.998 28.0373 131.806 27.7973 131.454 27.6267C131.113 27.456 130.606 27.3707 129.934 27.3707C129.209 27.3707 128.707 27.4293 128.43 27.5467C128.163 27.6533 128.03 27.8133 128.03 28.0267C128.03 28.24 128.126 28.4 128.318 28.5067C128.51 28.6027 128.878 28.672 129.422 28.7147L133.39 29.0827C134.83 29.2213 135.939 29.584 136.718 30.1707C137.497 30.7467 137.886 31.6107 137.886 32.7627C137.886 33.8613 137.598 34.704 137.022 35.2907C136.446 35.8667 135.603 36.256 134.494 36.4587C133.395 36.672 131.934 36.7787 130.11 36.7787C128.339 36.7787 126.905 36.6613 125.806 36.4267C124.707 36.192 123.859 35.7707 123.262 35.1627C122.675 34.5547 122.361 33.696 122.318 32.5867H127.758C127.801 33.0667 128.009 33.392 128.382 33.5627C128.766 33.7227 129.363 33.8027 130.174 33.8027C130.974 33.8027 131.523 33.7493 131.822 33.6427C132.121 33.536 132.27 33.3707 132.27 33.1467C132.27 32.912 132.169 32.736 131.966 32.6187C131.763 32.4907 131.379 32.3947 130.814 32.3307L127.102 31.9147C125.673 31.7547 124.563 31.4187 123.774 30.9067C122.995 30.384 122.606 29.5307 122.606 28.3467C122.606 26.9067 123.241 25.904 124.51 25.3387C125.79 24.7733 127.619 24.4907 129.998 24.4907C132.345 24.4907 134.142 24.7733 135.39 25.3387C136.649 25.8933 137.31 26.896 137.374 28.3467H132.03ZM149.421 28.3467C149.389 28.0373 149.197 27.7973 148.845 27.6267C148.504 27.456 147.997 27.3707 147.325 27.3707C146.6 27.3707 146.099 27.4293 145.821 27.5467C145.555 27.6533 145.421 27.8133 145.421 28.0267C145.421 28.24 145.517 28.4 145.709 28.5067C145.901 28.6027 146.269 28.672 146.813 28.7147L150.781 29.0827C152.221 29.2213 153.331 29.584 154.109 30.1707C154.888 30.7467 155.277 31.6107 155.277 32.7627C155.277 33.8613 154.989 34.704 154.413 35.2907C153.837 35.8667 152.995 36.256 151.885 36.4587C150.787 36.672 149.325 36.7787 147.501 36.7787C145.731 36.7787 144.296 36.6613 143.197 36.4267C142.099 36.192 141.251 35.7707 140.653 35.1627C140.067 34.5547 139.752 33.696 139.709 32.5867H145.149C145.192 33.0667 145.4 33.392 145.773 33.5627C146.157 33.7227 146.755 33.8027 147.565 33.8027C148.365 33.8027 148.915 33.7493 149.213 33.6427C149.512 33.536 149.661 33.3707 149.661 33.1467C149.661 32.912 149.56 32.736 149.357 32.6187C149.155 32.4907 148.771 32.3947 148.205 32.3307L144.493 31.9147C143.064 31.7547 141.955 31.4187 141.165 30.9067C140.387 30.384 139.997 29.5307 139.997 28.3467C139.997 26.9067 140.632 25.904 141.901 25.3387C143.181 24.7733 145.011 24.4907 147.389 24.4907C149.736 24.4907 151.533 24.7733 152.781 25.3387C154.04 25.8933 154.701 26.896 154.765 28.3467H149.421ZM165.677 24.4907C168.514 24.4907 170.621 24.992 171.997 25.9947C173.373 26.9973 174.061 28.544 174.061 30.6347C174.061 32.7253 173.373 34.272 171.997 35.2747C170.621 36.2773 168.514 36.7787 165.677 36.7787C162.839 36.7787 160.733 36.2773 159.357 35.2747C157.981 34.272 157.293 32.7253 157.293 30.6347C157.293 28.544 157.981 26.9973 159.357 25.9947C160.733 24.992 162.839 24.4907 165.677 24.4907ZM165.677 33.2587C167.767 33.2587 168.813 32.384 168.813 30.6347C168.813 28.8853 167.767 28.0107 165.677 28.0107C163.586 28.0107 162.541 28.8853 162.541 30.6347C162.541 32.384 163.586 33.2587 165.677 33.2587ZM188.937 32.1547L191.529 36.3467H186.233L184.377 33.1147H181.129V36.3467H176.329V24.9227H186.185C188.041 24.9227 189.353 25.2533 190.121 25.9147C190.889 26.5653 191.273 27.5467 191.273 28.8587C191.273 29.7653 191.076 30.464 190.681 30.9547C190.287 31.4453 189.705 31.792 188.937 31.9947V32.1547ZM184.713 30.3147C185.151 30.3147 185.46 30.24 185.641 30.0907C185.833 29.9307 185.929 29.6853 185.929 29.3547C185.929 29.0133 185.839 28.7627 185.657 28.6027C185.476 28.4427 185.161 28.3627 184.713 28.3627H181.129V30.3147H184.713ZM202.767 28.3467C202.735 28.0373 202.543 27.7973 202.191 27.6267C201.85 27.456 201.343 27.3707 200.671 27.3707C199.946 27.3707 199.444 27.4293 199.167 27.5467C198.9 27.6533 198.767 27.8133 198.767 28.0267C198.767 28.24 198.863 28.4 199.055 28.5067C199.247 28.6027 199.615 28.672 200.159 28.7147L204.127 29.0827C205.567 29.2213 206.676 29.584 207.455 30.1707C208.234 30.7467 208.623 31.6107 208.623 32.7627C208.623 33.8613 208.335 34.704 207.759 35.2907C207.183 35.8667 206.34 36.256 205.231 36.4587C204.132 36.672 202.671 36.7787 200.847 36.7787C199.076 36.7787 197.642 36.6613 196.543 36.4267C195.444 36.192 194.596 35.7707 193.999 35.1627C193.412 34.5547 193.098 33.696 193.055 32.5867H198.495C198.538 33.0667 198.746 33.392 199.119 33.5627C199.503 33.7227 200.1 33.8027 200.911 33.8027C201.711 33.8027 202.26 33.7493 202.559 33.6427C202.858 33.536 203.007 33.3707 203.007 33.1467C203.007 32.912 202.906 32.736 202.703 32.6187C202.5 32.4907 202.116 32.3947 201.551 32.3307L197.839 31.9147C196.41 31.7547 195.3 31.4187 194.511 30.9067C193.732 30.384 193.343 29.5307 193.343 28.3467C193.343 26.9067 193.978 25.904 195.247 25.3387C196.527 24.7733 198.356 24.4907 200.735 24.4907C203.082 24.4907 204.879 24.7733 206.127 25.3387C207.386 25.8933 208.047 26.896 208.111 28.3467H202.767Z" fill="white"/>
<path d="M29 7.34668H54V53.3467H7V26.8467L29 7.34668Z" fill="white"/>
<path d="M31.9657 31.7593L29.0183 20.6641C28.7666 19.7162 27.8006 19.1537 26.8608 19.4077C25.921 19.6617 25.3634 20.636 25.6151 21.5839L26.6736 25.5685" stroke="#417B6B" stroke-miterlimit="10"/>
<path d="M31.5898 31.7593L34.5372 20.6641C34.7889 19.7162 35.7549 19.1537 36.6947 19.4077C37.6345 19.6617 38.1921 20.636 37.9404 21.5839L35.2374 31.7593" stroke="#417B6B" stroke-miterlimit="10"/>
<path d="M25.5555 33.537C25.5555 34.5189 24.7596 35.3147 23.7778 35.3147C22.7959 35.3147 22 34.5189 22 33.537V31.7592C22 30.7773 22.7959 29.9814 23.7778 29.9814C24.7596 29.9814 25.5555 30.7773 25.5555 31.7592" stroke="#417B6B" stroke-miterlimit="10"/>
<path d="M27.3325 35.3142C26.3506 35.3142 25.5547 34.5183 25.5547 33.5364V29.9809C25.5547 28.999 26.3506 28.2031 27.3325 28.2031C28.3143 28.2031 29.1102 28.999 29.1102 29.9809V33.5364C29.1102 34.5183 28.3143 35.3142 27.3325 35.3142Z" stroke="#417B6B" stroke-miterlimit="10"/>
<path d="M34.4446 35.3145C31.4991 35.3145 29.1113 37.7022 29.1113 40.6478" stroke="#417B6B" stroke-miterlimit="10"/>
<path d="M22 33.5375V37.9819C22 42.4001 25.5816 45.9819 30 45.9819C34.4181 45.9819 37.9999 42.4003 37.9999 37.9819V31.7598H30.8888C29.907 31.7598 29.1111 32.5556 29.1111 33.5375C29.1111 34.5194 29.907 35.3153 30.8888 35.3153H34.4444" stroke="#417B6B" stroke-miterlimit="10"/>
<path d="M32.666 40.6797H34.4438" stroke="#417B6B" stroke-miterlimit="10"/>
<defs>
<filter id="filter0_ddddd_602_6" x="-90.326" y="0.34668" width="415.088" height="263.073" filterUnits="userSpaceOnUse" color-interpolation-filters="sRGB">
<feFlood flood-opacity="0" result="BackgroundImageFix"/>
<feColorMatrix in="SourceAlpha" type="matrix" values="0 0 0 0 0 0 0 0 0 0 0 0 0 0 0 0 0 0 127 0" result="hardAlpha"/>
<feOffset dy="3.87825"/>
<feGaussianBlur stdDeviation="1.5513"/>
<feColorMatrix type="matrix" values="0 0 0 0 0.156863 0 0 0 0 0.227451 0 0 0 0 0.592157 0 0 0 0.0217013 0"/>
<feBlend mode="normal" in2="BackgroundImageFix" result="effect1_dropShadow_602_6"/>
<feColorMatrix in="SourceAlpha" type="matrix" values="0 0 0 0 0 0 0 0 0 0 0 0 0 0 0 0 0 0 127 0" result="hardAlpha"/>
<feOffset dy="9.80839"/>
<feGaussianBlur stdDeviation="3.92336"/>
<feColorMatrix type="matrix" values="0 0 0 0 0.156863 0 0 0 0 0.227451 0 0 0 0 0.592157 0 0 0 0.0310596 0"/>
<feBlend mode="normal" in2="effect1_dropShadow_602_6" result="effect2_dropShadow_602_6"/>
<feColorMatrix in="SourceAlpha" type="matrix" values="0 0 0 0 0 0 0 0 0 0 0 0 0 0 0 0 0 0 127 0" result="hardAlpha"/>
<feOffset dy="20.0082"/>
<feGaussianBlur stdDeviation="8.00328"/>
<feColorMatrix type="matrix" values="0 0 0 0 0.156863 0 0 0 0 0.227451 0 0 0 0 0.592157 0 0 0 0.0389404 0"/>
<feBlend mode="normal" in2="effect2_dropShadow_602_6" result="effect3_dropShadow_602_6"/>
<feColorMatrix in="SourceAlpha" type="matrix" values="0 0 0 0 0 0 0 0 0 0 0 0 0 0 0 0 0 0 127 0" result="hardAlpha"/>
<feOffset dy="41.2131"/>
<feGaussianBlur stdDeviation="16.4852"/>
<feColorMatrix type="matrix" values="0 0 0 0 0.156863 0 0 0 0 0.227451 0 0 0 0 0.592157 0 0 0 0.0482987 0"/>
<feBlend mode="normal" in2="effect3_dropShadow_602_6" result="effect4_dropShadow_602_6"/>
<feColorMatrix in="SourceAlpha" type="matrix" values="0 0 0 0 0 0 0 0 0 0 0 0 0 0 0 0 0 0 127 0" result="hardAlpha"/>
<feOffset dy="112.907"/>
<feGaussianBlur stdDeviation="45.163"/>
<feColorMatrix type="matrix" values="0 0 0 0 0.156863 0 0 0 0 0.227451 0 0 0 0 0.592157 0 0 0 0.07 0"/>
<feBlend mode="normal" in2="effect4_dropShadow_602_6" result="effect5_dropShadow_602_6"/>
<feBlend mode="normal" in="SourceGraphic" in2="effect5_dropShadow_602_6" result="shape"/>
</filter>
</defs>
</svg>
